<svg id="Lag_1" data-name="Lag 1" xmlns="http://www.w3.org/2000/svg" viewBox="0 0 789.98877 151.7998"><defs><style>.cls-1{fill:#24aa99;}</style></defs><path class="cls-1" d="M619.06836,605.38281a59.46434,59.46434,0,0,1-23.30029-24.20019q-8.30127-15.59913-8.29981-35.79981,0-20.40015,8.2002-36a58.8335,58.8335,0,0,1,23.1997-24.20019q15-8.59644,34.8003-8.59961,19.59815,0,34.59961,8.5a58.51569,58.51569,0,0,1,23.20019,23.8999q8.19873,15.40282,8.2002,35.6001,0,20.60156-8.2002,36.2998a59.34877,59.34877,0,0,1-23.20019,24.40039q-15,8.69971-34.59961,8.69922Q634.06518,613.98242,619.06836,605.38281Zm60.8999-28.59961q9.90015-11.79931,9.8999-31.40039a54.32552,54.32552,0,0,0-4.5-22.70019,34.5359,34.5359,0,0,0-63.3999,0,54.32552,54.32552,0,0,0-4.5,22.70019,53.61908,53.61908,0,0,0,4.5,22.59961,35.31488,35.31488,0,0,0,12.7002,15.2002,33.745,33.745,0,0,0,19,5.40039Q670.06518,588.583,679.96826,576.7832Z" transform="translate(-587.46826 -462.58301)"/><path class="cls-1" d="M740.668,508.38281h27.6001v17.79981q6.39843-10.59814,14.7998-15.59961a37.605,37.605,0,0,1,19.6001-5q16.59814,0,26,9.8999,9.39843,9.90015,9.3999,27.49951v68.40039H809.86816v-64q0-7.99658-4-12.5a13.73,13.73,0,0,0-10.80029-4.5q-8.00171,0-15.19971,6a38.57106,38.57106,0,0,0-11,15.2002v59.7998H740.668Z" transform="translate(-587.46826 -462.58301)"/><path class="cls-1" d="M873.36523,599.98242q-14.30127-14.39942-14.2998-40,0-16.59814,6.20019-28.89941a44.48638,44.48638,0,0,1,17.5-18.90039q11.29689-6.59987,26.5-6.59961,22.39674,0,34.39991,14.3999,12,14.40015,12,41.6001,0,4.60254-.2002,6.7998h-68q1.99733,10.60254,9.2002,16.09961,7.1997,5.50342,19.3999,5.5a66.52545,66.52545,0,0,0,15.3999-1.89941,58.26575,58.26575,0,0,0,14-5.10059l4.6001,22.60059a75.22278,75.22278,0,0,1-17.7002,6.5,85.22771,85.22771,0,0,1-19.6997,2.2998Q887.66211,614.38281,873.36523,599.98242Zm55.3003-52.7998q-.59986-8.59717-6-13.69971-5.40015-5.09985-14.39991-5.1001-8.60156,0-14.10009,5-5.50342,5.00172-6.89991,13.79981Z" transform="translate(-587.46826 -462.58301)"/><path class="cls-1" d="M971.26465,587.18262h18.20019V532.583H971.26465v-24.2002h18.20019v-12.6001q0-15,9.59961-24.10009,9.60059-9.09814,25.59961-9.09961,11.19873,0,24.80078,5.59961l-9.80078,22.20019q-6.80127-3.39843-12.19922-3.3999a9.73168,9.73168,0,0,0-7.20019,2.6001q-2.60157,2.60156-2.60059,7.59961v11.20019h24V532.583h-24v54.59961h24v24.20019H971.26465Z" transform="translate(-587.46826 -462.58301)"/><path class="cls-1" d="M1069.96582,599.98242q-14.30127-14.39942-14.2998-40,0-16.59814,6.20019-28.89941a44.48932,44.48932,0,0,1,17.5-18.90039q11.29688-6.59987,26.5-6.59961,22.396,0,34.39941,14.3999,12,14.40015,12,41.6001,0,4.60254-.19921,6.7998h-68q1.99658,10.60254,9.19921,16.09961,7.20119,5.50342,19.4004,5.5a66.5295,66.5295,0,0,0,15.40039-1.89941,58.27366,58.27366,0,0,0,14-5.10059L1146.666,605.583a75.2149,75.2149,0,0,1-17.7002,6.5,85.22878,85.22878,0,0,1-19.7002,2.2998Q1084.26368,614.38281,1069.96582,599.98242Zm55.2998-52.7998q-.59911-8.59717-6-13.69971-5.3994-5.09985-14.39941-5.1001-8.60155,0-14.10059,5-5.50194,5.00172-6.89941,13.79981Z" transform="translate(-587.46826 -462.58301)"/><path class="cls-1" d="M1183.56152,599.98242q-14.30127-14.39942-14.2998-40,0-16.59814,6.20019-28.89941a44.48932,44.48932,0,0,1,17.5-18.90039q11.29688-6.59987,26.5-6.59961,22.396,0,34.39942,14.3999,12,14.40015,12,41.6001,0,4.60254-.19922,6.7998h-68q1.99657,10.60254,9.19922,16.09961,7.20117,5.50342,19.40039,5.5a66.5295,66.5295,0,0,0,15.40039-1.89941,58.27366,58.27366,0,0,0,14-5.10059l4.59961,22.60059a75.2149,75.2149,0,0,1-17.7002,6.5,85.22876,85.22876,0,0,1-19.70019,2.2998Q1197.85938,614.38281,1183.56152,599.98242Zm55.29981-52.7998q-.59913-8.59717-6-13.69971-5.39942-5.09985-14.39942-5.1001-8.60155,0-14.10058,5-5.502,5.00172-6.89942,13.79981Z" transform="translate(-587.46826 -462.58301)"/><path class="cls-1" d="M1292.75781,601.083q-9.90087-13.29931-9.90039-37.10059,0-28.1997,14.7002-43.2998,14.6997-15.09815,41.89941-15.09961,3.39844,0,10.2002.3999v-40.6001h27.7998v146h-27.39941l.59961-13.40039h-.79981a36.29828,36.29828,0,0,1-12.70019,12.2002,34.397,34.397,0,0,1-17.09961,4.20019Q1302.65674,614.38281,1292.75781,601.083Zm46.09961-16.79981q6-5.499,10.79981-15.70019v-36.6001a50.805,50.805,0,0,0-13-1.80029q-12.59913,0-19.09961,8.20019-6.50244,8.20313-6.5,24,0,12.80127,4.09961,20.09961,4.09716,7.30371,11.2998,7.30078Q1332.85547,589.7832,1338.85742,584.2832Z" transform="translate(-587.46826 -462.58301)"/></svg>